<mxfile host="app.diagrams.net" agent="Mozilla/5.0 (Windows NT 10.0; Win64; x64) AppleWebKit/537.36 (KHTML, like Gecko) Chrome/141.0.0.0 Safari/537.36" version="28.2.3">
  <diagram name="Page-1" id="jd2KPKHvhAhkVkk6qD4C">
    <mxGraphModel dx="2528" dy="1974" grid="1" gridSize="10" guides="1" tooltips="1" connect="1" arrows="1" fold="1" page="1" pageScale="1" pageWidth="850" pageHeight="1100" math="0" shadow="0">
      <root>
        <mxCell id="0" />
        <mxCell id="1" parent="0" />
        <mxCell id="N5NTylKhGauqdAHJKplo-93" value="" style="group" vertex="1" connectable="0" parent="1">
          <mxGeometry x="70" y="410" width="285" height="150" as="geometry" />
        </mxCell>
        <mxCell id="N5NTylKhGauqdAHJKplo-63" style="edgeStyle=orthogonalEdgeStyle;rounded=0;orthogonalLoop=1;jettySize=auto;html=1;exitX=0.5;exitY=0;exitDx=0;exitDy=0;entryX=0.5;entryY=1;entryDx=0;entryDy=0;movable=1;resizable=1;rotatable=1;deletable=1;editable=1;locked=0;connectable=1;" edge="1" parent="N5NTylKhGauqdAHJKplo-93" source="N5NTylKhGauqdAHJKplo-5" target="N5NTylKhGauqdAHJKplo-55">
          <mxGeometry relative="1" as="geometry" />
        </mxCell>
        <mxCell id="N5NTylKhGauqdAHJKplo-64" style="edgeStyle=orthogonalEdgeStyle;rounded=0;orthogonalLoop=1;jettySize=auto;html=1;exitX=1;exitY=0.5;exitDx=0;exitDy=0;entryX=0;entryY=0.5;entryDx=0;entryDy=0;movable=1;resizable=1;rotatable=1;deletable=1;editable=1;locked=0;connectable=1;" edge="1" parent="N5NTylKhGauqdAHJKplo-93" source="N5NTylKhGauqdAHJKplo-5" target="N5NTylKhGauqdAHJKplo-59">
          <mxGeometry relative="1" as="geometry" />
        </mxCell>
        <mxCell id="N5NTylKhGauqdAHJKplo-66" style="edgeStyle=orthogonalEdgeStyle;rounded=0;orthogonalLoop=1;jettySize=auto;html=1;exitX=0.5;exitY=1;exitDx=0;exitDy=0;entryX=1;entryY=0;entryDx=0;entryDy=0;movable=1;resizable=1;rotatable=1;deletable=1;editable=1;locked=0;connectable=1;" edge="1" parent="N5NTylKhGauqdAHJKplo-93" source="N5NTylKhGauqdAHJKplo-5" target="N5NTylKhGauqdAHJKplo-56">
          <mxGeometry relative="1" as="geometry" />
        </mxCell>
        <mxCell id="N5NTylKhGauqdAHJKplo-68" style="edgeStyle=orthogonalEdgeStyle;rounded=0;orthogonalLoop=1;jettySize=auto;html=1;exitX=0;exitY=0.25;exitDx=0;exitDy=0;entryX=1;entryY=1;entryDx=0;entryDy=0;movable=1;resizable=1;rotatable=1;deletable=1;editable=1;locked=0;connectable=1;" edge="1" parent="N5NTylKhGauqdAHJKplo-93" source="N5NTylKhGauqdAHJKplo-5" target="N5NTylKhGauqdAHJKplo-60">
          <mxGeometry relative="1" as="geometry" />
        </mxCell>
        <mxCell id="N5NTylKhGauqdAHJKplo-5" value="WorkoutLog" style="rounded=0;whiteSpace=wrap;html=1;fillColor=#dae8fc;strokeColor=#6c8ebf;movable=1;resizable=1;rotatable=1;deletable=1;editable=1;locked=0;connectable=1;" vertex="1" parent="N5NTylKhGauqdAHJKplo-93">
          <mxGeometry x="90" y="50" width="110" height="40" as="geometry" />
        </mxCell>
        <mxCell id="N5NTylKhGauqdAHJKplo-55" value="&lt;u&gt;id&lt;/u&gt;" style="ellipse;whiteSpace=wrap;html=1;fillColor=#fff2cc;strokeColor=#d6b656;movable=1;resizable=1;rotatable=1;deletable=1;editable=1;locked=0;connectable=1;" vertex="1" parent="N5NTylKhGauqdAHJKplo-93">
          <mxGeometry x="110" width="70" height="30" as="geometry" />
        </mxCell>
        <mxCell id="N5NTylKhGauqdAHJKplo-56" value="type" style="ellipse;whiteSpace=wrap;html=1;fillColor=#fff2cc;strokeColor=#d6b656;movable=1;resizable=1;rotatable=1;deletable=1;editable=1;locked=0;connectable=1;" vertex="1" parent="N5NTylKhGauqdAHJKplo-93">
          <mxGeometry x="80" y="110" width="70" height="30" as="geometry" />
        </mxCell>
        <mxCell id="N5NTylKhGauqdAHJKplo-59" value="calories" style="ellipse;whiteSpace=wrap;html=1;fillColor=#fff2cc;strokeColor=#d6b656;movable=1;resizable=1;rotatable=1;deletable=1;editable=1;locked=0;connectable=1;" vertex="1" parent="N5NTylKhGauqdAHJKplo-93">
          <mxGeometry x="230" y="55" width="70" height="30" as="geometry" />
        </mxCell>
        <mxCell id="N5NTylKhGauqdAHJKplo-60" value="duration" style="ellipse;whiteSpace=wrap;html=1;fillColor=#fff2cc;strokeColor=#d6b656;movable=1;resizable=1;rotatable=1;deletable=1;editable=1;locked=0;connectable=1;" vertex="1" parent="N5NTylKhGauqdAHJKplo-93">
          <mxGeometry x="20" y="10" width="70" height="30" as="geometry" />
        </mxCell>
        <mxCell id="N5NTylKhGauqdAHJKplo-58" value="date" style="ellipse;whiteSpace=wrap;html=1;fillColor=#fff2cc;strokeColor=#d6b656;movable=1;resizable=1;rotatable=1;deletable=1;editable=1;locked=0;connectable=1;" vertex="1" parent="N5NTylKhGauqdAHJKplo-93">
          <mxGeometry x="200" y="120" width="70" height="30" as="geometry" />
        </mxCell>
        <mxCell id="N5NTylKhGauqdAHJKplo-65" style="edgeStyle=orthogonalEdgeStyle;rounded=0;orthogonalLoop=1;jettySize=auto;html=1;exitX=0.75;exitY=1;exitDx=0;exitDy=0;entryX=0;entryY=0.5;entryDx=0;entryDy=0;movable=1;resizable=1;rotatable=1;deletable=1;editable=1;locked=0;connectable=1;" edge="1" parent="N5NTylKhGauqdAHJKplo-93" source="N5NTylKhGauqdAHJKplo-5" target="N5NTylKhGauqdAHJKplo-58">
          <mxGeometry relative="1" as="geometry" />
        </mxCell>
        <mxCell id="N5NTylKhGauqdAHJKplo-94" value="" style="group" vertex="1" connectable="0" parent="1">
          <mxGeometry x="460" y="20" width="330" height="170" as="geometry" />
        </mxCell>
        <mxCell id="N5NTylKhGauqdAHJKplo-35" style="edgeStyle=orthogonalEdgeStyle;rounded=0;orthogonalLoop=1;jettySize=auto;html=1;exitX=0.5;exitY=0;exitDx=0;exitDy=0;entryX=0.5;entryY=1;entryDx=0;entryDy=0;" edge="1" parent="N5NTylKhGauqdAHJKplo-94" source="N5NTylKhGauqdAHJKplo-3" target="N5NTylKhGauqdAHJKplo-34">
          <mxGeometry relative="1" as="geometry" />
        </mxCell>
        <mxCell id="N5NTylKhGauqdAHJKplo-36" style="edgeStyle=orthogonalEdgeStyle;rounded=0;orthogonalLoop=1;jettySize=auto;html=1;exitX=0.75;exitY=0;exitDx=0;exitDy=0;entryX=0;entryY=0.5;entryDx=0;entryDy=0;" edge="1" parent="N5NTylKhGauqdAHJKplo-94" source="N5NTylKhGauqdAHJKplo-3" target="N5NTylKhGauqdAHJKplo-33">
          <mxGeometry relative="1" as="geometry" />
        </mxCell>
        <mxCell id="N5NTylKhGauqdAHJKplo-37" style="edgeStyle=orthogonalEdgeStyle;rounded=0;orthogonalLoop=1;jettySize=auto;html=1;exitX=1;exitY=0.5;exitDx=0;exitDy=0;entryX=0;entryY=0.5;entryDx=0;entryDy=0;" edge="1" parent="N5NTylKhGauqdAHJKplo-94" source="N5NTylKhGauqdAHJKplo-3" target="N5NTylKhGauqdAHJKplo-32">
          <mxGeometry relative="1" as="geometry" />
        </mxCell>
        <mxCell id="N5NTylKhGauqdAHJKplo-38" style="edgeStyle=orthogonalEdgeStyle;rounded=0;orthogonalLoop=1;jettySize=auto;html=1;exitX=1;exitY=1;exitDx=0;exitDy=0;entryX=0;entryY=0;entryDx=0;entryDy=0;" edge="1" parent="N5NTylKhGauqdAHJKplo-94" source="N5NTylKhGauqdAHJKplo-3" target="N5NTylKhGauqdAHJKplo-31">
          <mxGeometry relative="1" as="geometry" />
        </mxCell>
        <mxCell id="N5NTylKhGauqdAHJKplo-39" style="edgeStyle=orthogonalEdgeStyle;rounded=0;orthogonalLoop=1;jettySize=auto;html=1;exitX=0.75;exitY=1;exitDx=0;exitDy=0;entryX=0.5;entryY=0;entryDx=0;entryDy=0;" edge="1" parent="N5NTylKhGauqdAHJKplo-94" source="N5NTylKhGauqdAHJKplo-3" target="N5NTylKhGauqdAHJKplo-29">
          <mxGeometry relative="1" as="geometry" />
        </mxCell>
        <mxCell id="N5NTylKhGauqdAHJKplo-41" style="edgeStyle=orthogonalEdgeStyle;rounded=0;orthogonalLoop=1;jettySize=auto;html=1;exitX=0;exitY=0.5;exitDx=0;exitDy=0;entryX=1;entryY=0.5;entryDx=0;entryDy=0;" edge="1" parent="N5NTylKhGauqdAHJKplo-94" source="N5NTylKhGauqdAHJKplo-3" target="N5NTylKhGauqdAHJKplo-30">
          <mxGeometry relative="1" as="geometry" />
        </mxCell>
        <mxCell id="N5NTylKhGauqdAHJKplo-42" style="edgeStyle=orthogonalEdgeStyle;rounded=0;orthogonalLoop=1;jettySize=auto;html=1;exitX=0.25;exitY=0;exitDx=0;exitDy=0;entryX=1;entryY=0.5;entryDx=0;entryDy=0;" edge="1" parent="N5NTylKhGauqdAHJKplo-94" source="N5NTylKhGauqdAHJKplo-3" target="N5NTylKhGauqdAHJKplo-27">
          <mxGeometry relative="1" as="geometry" />
        </mxCell>
        <mxCell id="N5NTylKhGauqdAHJKplo-3" value="Task" style="rounded=0;whiteSpace=wrap;html=1;fillColor=#dae8fc;strokeColor=#6c8ebf;" vertex="1" parent="N5NTylKhGauqdAHJKplo-94">
          <mxGeometry x="120" y="70" width="110" height="40" as="geometry" />
        </mxCell>
        <mxCell id="N5NTylKhGauqdAHJKplo-27" value="password" style="ellipse;whiteSpace=wrap;html=1;fillColor=#fff2cc;strokeColor=#d6b656;" vertex="1" parent="N5NTylKhGauqdAHJKplo-94">
          <mxGeometry x="40" y="20" width="70" height="30" as="geometry" />
        </mxCell>
        <mxCell id="N5NTylKhGauqdAHJKplo-29" value="dueDate" style="ellipse;whiteSpace=wrap;html=1;fillColor=#fff2cc;strokeColor=#d6b656;" vertex="1" parent="N5NTylKhGauqdAHJKplo-94">
          <mxGeometry x="150" y="140" width="70" height="30" as="geometry" />
        </mxCell>
        <mxCell id="N5NTylKhGauqdAHJKplo-30" value="completed" style="ellipse;whiteSpace=wrap;html=1;fillColor=#fff2cc;strokeColor=#d6b656;" vertex="1" parent="N5NTylKhGauqdAHJKplo-94">
          <mxGeometry y="60" width="70" height="30" as="geometry" />
        </mxCell>
        <mxCell id="N5NTylKhGauqdAHJKplo-31" value="priority" style="ellipse;whiteSpace=wrap;html=1;fillColor=#fff2cc;strokeColor=#d6b656;" vertex="1" parent="N5NTylKhGauqdAHJKplo-94">
          <mxGeometry x="240" y="120" width="70" height="30" as="geometry" />
        </mxCell>
        <mxCell id="N5NTylKhGauqdAHJKplo-32" value="description" style="ellipse;whiteSpace=wrap;html=1;fillColor=#fff2cc;strokeColor=#d6b656;" vertex="1" parent="N5NTylKhGauqdAHJKplo-94">
          <mxGeometry x="260" y="70" width="70" height="30" as="geometry" />
        </mxCell>
        <mxCell id="N5NTylKhGauqdAHJKplo-33" value="title" style="ellipse;whiteSpace=wrap;html=1;fillColor=#fff2cc;strokeColor=#d6b656;" vertex="1" parent="N5NTylKhGauqdAHJKplo-94">
          <mxGeometry x="245" y="20" width="70" height="30" as="geometry" />
        </mxCell>
        <mxCell id="N5NTylKhGauqdAHJKplo-34" value="&lt;u&gt;id&lt;/u&gt;" style="ellipse;whiteSpace=wrap;html=1;fillColor=#fff2cc;strokeColor=#d6b656;" vertex="1" parent="N5NTylKhGauqdAHJKplo-94">
          <mxGeometry x="140" width="70" height="30" as="geometry" />
        </mxCell>
        <mxCell id="N5NTylKhGauqdAHJKplo-95" value="" style="group" vertex="1" connectable="0" parent="1">
          <mxGeometry x="-80" y="-30" width="310" height="150" as="geometry" />
        </mxCell>
        <mxCell id="N5NTylKhGauqdAHJKplo-20" style="edgeStyle=orthogonalEdgeStyle;rounded=0;orthogonalLoop=1;jettySize=auto;html=1;exitX=1;exitY=0.5;exitDx=0;exitDy=0;entryX=0;entryY=0;entryDx=0;entryDy=0;" edge="1" parent="N5NTylKhGauqdAHJKplo-95" source="N5NTylKhGauqdAHJKplo-1" target="N5NTylKhGauqdAHJKplo-15">
          <mxGeometry relative="1" as="geometry" />
        </mxCell>
        <mxCell id="N5NTylKhGauqdAHJKplo-21" style="edgeStyle=orthogonalEdgeStyle;rounded=0;orthogonalLoop=1;jettySize=auto;html=1;exitX=1;exitY=0;exitDx=0;exitDy=0;entryX=0;entryY=0.5;entryDx=0;entryDy=0;" edge="1" parent="N5NTylKhGauqdAHJKplo-95" source="N5NTylKhGauqdAHJKplo-1" target="N5NTylKhGauqdAHJKplo-16">
          <mxGeometry relative="1" as="geometry" />
        </mxCell>
        <mxCell id="N5NTylKhGauqdAHJKplo-22" style="edgeStyle=orthogonalEdgeStyle;rounded=0;orthogonalLoop=1;jettySize=auto;html=1;exitX=0.75;exitY=0;exitDx=0;exitDy=0;entryX=0;entryY=1;entryDx=0;entryDy=0;" edge="1" parent="N5NTylKhGauqdAHJKplo-95" source="N5NTylKhGauqdAHJKplo-1" target="N5NTylKhGauqdAHJKplo-13">
          <mxGeometry relative="1" as="geometry" />
        </mxCell>
        <mxCell id="N5NTylKhGauqdAHJKplo-23" style="edgeStyle=orthogonalEdgeStyle;rounded=0;orthogonalLoop=1;jettySize=auto;html=1;exitX=0.5;exitY=0;exitDx=0;exitDy=0;entryX=0.5;entryY=1;entryDx=0;entryDy=0;" edge="1" parent="N5NTylKhGauqdAHJKplo-95" source="N5NTylKhGauqdAHJKplo-1" target="N5NTylKhGauqdAHJKplo-12">
          <mxGeometry relative="1" as="geometry" />
        </mxCell>
        <mxCell id="N5NTylKhGauqdAHJKplo-24" style="edgeStyle=orthogonalEdgeStyle;rounded=0;orthogonalLoop=1;jettySize=auto;html=1;exitX=0.25;exitY=0;exitDx=0;exitDy=0;entryX=0.5;entryY=1;entryDx=0;entryDy=0;" edge="1" parent="N5NTylKhGauqdAHJKplo-95" source="N5NTylKhGauqdAHJKplo-1" target="N5NTylKhGauqdAHJKplo-14">
          <mxGeometry relative="1" as="geometry" />
        </mxCell>
        <mxCell id="N5NTylKhGauqdAHJKplo-25" style="edgeStyle=orthogonalEdgeStyle;rounded=0;orthogonalLoop=1;jettySize=auto;html=1;exitX=0;exitY=0;exitDx=0;exitDy=0;entryX=1;entryY=1;entryDx=0;entryDy=0;" edge="1" parent="N5NTylKhGauqdAHJKplo-95" source="N5NTylKhGauqdAHJKplo-1" target="N5NTylKhGauqdAHJKplo-18">
          <mxGeometry relative="1" as="geometry" />
        </mxCell>
        <mxCell id="N5NTylKhGauqdAHJKplo-26" style="edgeStyle=orthogonalEdgeStyle;rounded=0;orthogonalLoop=1;jettySize=auto;html=1;exitX=0;exitY=1;exitDx=0;exitDy=0;entryX=1;entryY=1;entryDx=0;entryDy=0;" edge="1" parent="N5NTylKhGauqdAHJKplo-95" source="N5NTylKhGauqdAHJKplo-1" target="N5NTylKhGauqdAHJKplo-17">
          <mxGeometry relative="1" as="geometry" />
        </mxCell>
        <mxCell id="N5NTylKhGauqdAHJKplo-1" value="User" style="rounded=0;whiteSpace=wrap;html=1;fillColor=#dae8fc;strokeColor=#6c8ebf;" vertex="1" parent="N5NTylKhGauqdAHJKplo-95">
          <mxGeometry x="100" y="90" width="110" height="40" as="geometry" />
        </mxCell>
        <mxCell id="N5NTylKhGauqdAHJKplo-12" value="&lt;u&gt;id&lt;/u&gt;" style="ellipse;whiteSpace=wrap;html=1;fillColor=#fff2cc;strokeColor=#d6b656;" vertex="1" parent="N5NTylKhGauqdAHJKplo-95">
          <mxGeometry x="140" width="70" height="30" as="geometry" />
        </mxCell>
        <mxCell id="N5NTylKhGauqdAHJKplo-13" value="name" style="ellipse;whiteSpace=wrap;html=1;fillColor=#fff2cc;strokeColor=#d6b656;" vertex="1" parent="N5NTylKhGauqdAHJKplo-95">
          <mxGeometry x="210" y="10" width="70" height="30" as="geometry" />
        </mxCell>
        <mxCell id="N5NTylKhGauqdAHJKplo-14" value="email" style="ellipse;whiteSpace=wrap;html=1;fillColor=#fff2cc;strokeColor=#d6b656;" vertex="1" parent="N5NTylKhGauqdAHJKplo-95">
          <mxGeometry x="60" y="10" width="70" height="30" as="geometry" />
        </mxCell>
        <mxCell id="N5NTylKhGauqdAHJKplo-15" value="password" style="ellipse;whiteSpace=wrap;html=1;fillColor=#fff2cc;strokeColor=#d6b656;" vertex="1" parent="N5NTylKhGauqdAHJKplo-95">
          <mxGeometry x="230" y="110" width="70" height="30" as="geometry" />
        </mxCell>
        <mxCell id="N5NTylKhGauqdAHJKplo-16" value="updatedAt" style="ellipse;whiteSpace=wrap;html=1;fillColor=#fff2cc;strokeColor=#d6b656;" vertex="1" parent="N5NTylKhGauqdAHJKplo-95">
          <mxGeometry x="240" y="60" width="70" height="30" as="geometry" />
        </mxCell>
        <mxCell id="N5NTylKhGauqdAHJKplo-17" value="profileImage" style="ellipse;whiteSpace=wrap;html=1;fillColor=#fff2cc;strokeColor=#d6b656;" vertex="1" parent="N5NTylKhGauqdAHJKplo-95">
          <mxGeometry y="130" width="70" height="30" as="geometry" />
        </mxCell>
        <mxCell id="N5NTylKhGauqdAHJKplo-18" value="createdAt" style="ellipse;whiteSpace=wrap;html=1;fillColor=#fff2cc;strokeColor=#d6b656;" vertex="1" parent="N5NTylKhGauqdAHJKplo-95">
          <mxGeometry x="20" y="50" width="70" height="30" as="geometry" />
        </mxCell>
        <mxCell id="N5NTylKhGauqdAHJKplo-96" value="" style="group" vertex="1" connectable="0" parent="1">
          <mxGeometry x="430" y="210" width="300" height="120" as="geometry" />
        </mxCell>
        <mxCell id="N5NTylKhGauqdAHJKplo-50" style="edgeStyle=orthogonalEdgeStyle;rounded=0;orthogonalLoop=1;jettySize=auto;html=1;exitX=0;exitY=0.5;exitDx=0;exitDy=0;entryX=1;entryY=1;entryDx=0;entryDy=0;" edge="1" parent="N5NTylKhGauqdAHJKplo-96" source="N5NTylKhGauqdAHJKplo-4" target="N5NTylKhGauqdAHJKplo-45">
          <mxGeometry relative="1" as="geometry" />
        </mxCell>
        <mxCell id="N5NTylKhGauqdAHJKplo-51" style="edgeStyle=orthogonalEdgeStyle;rounded=0;orthogonalLoop=1;jettySize=auto;html=1;exitX=0.25;exitY=0;exitDx=0;exitDy=0;entryX=1;entryY=1;entryDx=0;entryDy=0;" edge="1" parent="N5NTylKhGauqdAHJKplo-96" source="N5NTylKhGauqdAHJKplo-4" target="N5NTylKhGauqdAHJKplo-48">
          <mxGeometry relative="1" as="geometry" />
        </mxCell>
        <mxCell id="N5NTylKhGauqdAHJKplo-52" style="edgeStyle=orthogonalEdgeStyle;rounded=0;orthogonalLoop=1;jettySize=auto;html=1;exitX=0.75;exitY=0;exitDx=0;exitDy=0;entryX=0.5;entryY=1;entryDx=0;entryDy=0;" edge="1" parent="N5NTylKhGauqdAHJKplo-96" source="N5NTylKhGauqdAHJKplo-4" target="N5NTylKhGauqdAHJKplo-43">
          <mxGeometry relative="1" as="geometry" />
        </mxCell>
        <mxCell id="N5NTylKhGauqdAHJKplo-53" style="edgeStyle=orthogonalEdgeStyle;rounded=0;orthogonalLoop=1;jettySize=auto;html=1;exitX=1;exitY=0.25;exitDx=0;exitDy=0;entryX=0;entryY=0.5;entryDx=0;entryDy=0;" edge="1" parent="N5NTylKhGauqdAHJKplo-96" source="N5NTylKhGauqdAHJKplo-4" target="N5NTylKhGauqdAHJKplo-44">
          <mxGeometry relative="1" as="geometry" />
        </mxCell>
        <mxCell id="N5NTylKhGauqdAHJKplo-54" style="edgeStyle=orthogonalEdgeStyle;rounded=0;orthogonalLoop=1;jettySize=auto;html=1;exitX=1;exitY=1;exitDx=0;exitDy=0;entryX=0;entryY=0.5;entryDx=0;entryDy=0;" edge="1" parent="N5NTylKhGauqdAHJKplo-96" source="N5NTylKhGauqdAHJKplo-4" target="N5NTylKhGauqdAHJKplo-46">
          <mxGeometry relative="1" as="geometry" />
        </mxCell>
        <mxCell id="N5NTylKhGauqdAHJKplo-4" value="Note" style="rounded=0;whiteSpace=wrap;html=1;fillColor=#dae8fc;strokeColor=#6c8ebf;" vertex="1" parent="N5NTylKhGauqdAHJKplo-96">
          <mxGeometry x="100" y="50" width="110" height="40" as="geometry" />
        </mxCell>
        <mxCell id="N5NTylKhGauqdAHJKplo-43" value="&lt;u&gt;id&lt;/u&gt;" style="ellipse;whiteSpace=wrap;html=1;fillColor=#fff2cc;strokeColor=#d6b656;" vertex="1" parent="N5NTylKhGauqdAHJKplo-96">
          <mxGeometry x="150" width="70" height="30" as="geometry" />
        </mxCell>
        <mxCell id="N5NTylKhGauqdAHJKplo-44" value="title" style="ellipse;whiteSpace=wrap;html=1;fillColor=#fff2cc;strokeColor=#d6b656;" vertex="1" parent="N5NTylKhGauqdAHJKplo-96">
          <mxGeometry x="230" y="20" width="70" height="30" as="geometry" />
        </mxCell>
        <mxCell id="N5NTylKhGauqdAHJKplo-45" value="content" style="ellipse;whiteSpace=wrap;html=1;fillColor=#fff2cc;strokeColor=#d6b656;" vertex="1" parent="N5NTylKhGauqdAHJKplo-96">
          <mxGeometry y="20" width="70" height="30" as="geometry" />
        </mxCell>
        <mxCell id="N5NTylKhGauqdAHJKplo-46" value="tags" style="ellipse;whiteSpace=wrap;html=1;fillColor=#fff2cc;strokeColor=#d6b656;" vertex="1" parent="N5NTylKhGauqdAHJKplo-96">
          <mxGeometry x="230" y="90" width="70" height="30" as="geometry" />
        </mxCell>
        <mxCell id="N5NTylKhGauqdAHJKplo-48" value="createdAt" style="ellipse;whiteSpace=wrap;html=1;fillColor=#fff2cc;strokeColor=#d6b656;" vertex="1" parent="N5NTylKhGauqdAHJKplo-96">
          <mxGeometry x="70" width="70" height="30" as="geometry" />
        </mxCell>
        <mxCell id="N5NTylKhGauqdAHJKplo-97" value="" style="group" vertex="1" connectable="0" parent="1">
          <mxGeometry x="-10" y="200" width="285" height="160" as="geometry" />
        </mxCell>
        <mxCell id="N5NTylKhGauqdAHJKplo-76" style="edgeStyle=orthogonalEdgeStyle;rounded=0;orthogonalLoop=1;jettySize=auto;html=1;exitX=0.5;exitY=0;exitDx=0;exitDy=0;entryX=0.5;entryY=1;entryDx=0;entryDy=0;" edge="1" parent="N5NTylKhGauqdAHJKplo-97" source="N5NTylKhGauqdAHJKplo-7" target="N5NTylKhGauqdAHJKplo-69">
          <mxGeometry relative="1" as="geometry" />
        </mxCell>
        <mxCell id="N5NTylKhGauqdAHJKplo-77" style="edgeStyle=orthogonalEdgeStyle;rounded=0;orthogonalLoop=1;jettySize=auto;html=1;exitX=0.25;exitY=0;exitDx=0;exitDy=0;entryX=1;entryY=1;entryDx=0;entryDy=0;" edge="1" parent="N5NTylKhGauqdAHJKplo-97" source="N5NTylKhGauqdAHJKplo-7" target="N5NTylKhGauqdAHJKplo-71">
          <mxGeometry relative="1" as="geometry" />
        </mxCell>
        <mxCell id="N5NTylKhGauqdAHJKplo-78" style="edgeStyle=orthogonalEdgeStyle;rounded=0;orthogonalLoop=1;jettySize=auto;html=1;exitX=0.75;exitY=0;exitDx=0;exitDy=0;entryX=0;entryY=1;entryDx=0;entryDy=0;" edge="1" parent="N5NTylKhGauqdAHJKplo-97" source="N5NTylKhGauqdAHJKplo-7" target="N5NTylKhGauqdAHJKplo-73">
          <mxGeometry relative="1" as="geometry" />
        </mxCell>
        <mxCell id="N5NTylKhGauqdAHJKplo-79" style="edgeStyle=orthogonalEdgeStyle;rounded=0;orthogonalLoop=1;jettySize=auto;html=1;exitX=1;exitY=0.5;exitDx=0;exitDy=0;entryX=0;entryY=1;entryDx=0;entryDy=0;" edge="1" parent="N5NTylKhGauqdAHJKplo-97" source="N5NTylKhGauqdAHJKplo-7" target="N5NTylKhGauqdAHJKplo-70">
          <mxGeometry relative="1" as="geometry" />
        </mxCell>
        <mxCell id="N5NTylKhGauqdAHJKplo-7" value="MeditationLog" style="rounded=0;whiteSpace=wrap;html=1;fillColor=#dae8fc;strokeColor=#6c8ebf;" vertex="1" parent="N5NTylKhGauqdAHJKplo-97">
          <mxGeometry x="87.5" y="80" width="110" height="40" as="geometry" />
        </mxCell>
        <mxCell id="N5NTylKhGauqdAHJKplo-69" value="&lt;u&gt;id&lt;/u&gt;" style="ellipse;whiteSpace=wrap;html=1;fillColor=#fff2cc;strokeColor=#d6b656;" vertex="1" parent="N5NTylKhGauqdAHJKplo-97">
          <mxGeometry x="107.5" width="70" height="30" as="geometry" />
        </mxCell>
        <mxCell id="N5NTylKhGauqdAHJKplo-70" value="date" style="ellipse;whiteSpace=wrap;html=1;fillColor=#fff2cc;strokeColor=#d6b656;" vertex="1" parent="N5NTylKhGauqdAHJKplo-97">
          <mxGeometry x="215" y="60" width="70" height="30" as="geometry" />
        </mxCell>
        <mxCell id="N5NTylKhGauqdAHJKplo-71" value="duration" style="ellipse;whiteSpace=wrap;html=1;fillColor=#fff2cc;strokeColor=#d6b656;" vertex="1" parent="N5NTylKhGauqdAHJKplo-97">
          <mxGeometry x="20" y="10" width="70" height="30" as="geometry" />
        </mxCell>
        <mxCell id="N5NTylKhGauqdAHJKplo-73" value="moodBefore" style="ellipse;whiteSpace=wrap;html=1;fillColor=#fff2cc;strokeColor=#d6b656;" vertex="1" parent="N5NTylKhGauqdAHJKplo-97">
          <mxGeometry x="197.5" y="10" width="70" height="30" as="geometry" />
        </mxCell>
        <mxCell id="N5NTylKhGauqdAHJKplo-74" value="moodAfter" style="ellipse;whiteSpace=wrap;html=1;fillColor=#fff2cc;strokeColor=#d6b656;" vertex="1" parent="N5NTylKhGauqdAHJKplo-97">
          <mxGeometry x="177.5" y="130" width="70" height="30" as="geometry" />
        </mxCell>
        <mxCell id="N5NTylKhGauqdAHJKplo-172" style="edgeStyle=orthogonalEdgeStyle;rounded=0;orthogonalLoop=1;jettySize=auto;html=1;exitX=0.5;exitY=1;exitDx=0;exitDy=0;entryX=0;entryY=0.5;entryDx=0;entryDy=0;" edge="1" parent="N5NTylKhGauqdAHJKplo-97" source="N5NTylKhGauqdAHJKplo-7" target="N5NTylKhGauqdAHJKplo-74">
          <mxGeometry relative="1" as="geometry" />
        </mxCell>
        <mxCell id="N5NTylKhGauqdAHJKplo-98" value="" style="group" vertex="1" connectable="0" parent="1">
          <mxGeometry x="390" y="390" width="300" height="120" as="geometry" />
        </mxCell>
        <mxCell id="N5NTylKhGauqdAHJKplo-88" style="edgeStyle=orthogonalEdgeStyle;rounded=0;orthogonalLoop=1;jettySize=auto;html=1;exitX=0.5;exitY=0;exitDx=0;exitDy=0;entryX=0.5;entryY=1;entryDx=0;entryDy=0;" edge="1" parent="N5NTylKhGauqdAHJKplo-98" source="N5NTylKhGauqdAHJKplo-9" target="N5NTylKhGauqdAHJKplo-81">
          <mxGeometry relative="1" as="geometry" />
        </mxCell>
        <mxCell id="N5NTylKhGauqdAHJKplo-89" style="edgeStyle=orthogonalEdgeStyle;rounded=0;orthogonalLoop=1;jettySize=auto;html=1;exitX=1;exitY=0;exitDx=0;exitDy=0;entryX=0;entryY=1;entryDx=0;entryDy=0;" edge="1" parent="N5NTylKhGauqdAHJKplo-98" source="N5NTylKhGauqdAHJKplo-9" target="N5NTylKhGauqdAHJKplo-87">
          <mxGeometry relative="1" as="geometry" />
        </mxCell>
        <mxCell id="N5NTylKhGauqdAHJKplo-90" style="edgeStyle=orthogonalEdgeStyle;rounded=0;orthogonalLoop=1;jettySize=auto;html=1;exitX=1;exitY=0.5;exitDx=0;exitDy=0;entryX=0;entryY=0;entryDx=0;entryDy=0;" edge="1" parent="N5NTylKhGauqdAHJKplo-98" source="N5NTylKhGauqdAHJKplo-9" target="N5NTylKhGauqdAHJKplo-86">
          <mxGeometry relative="1" as="geometry" />
        </mxCell>
        <mxCell id="N5NTylKhGauqdAHJKplo-91" style="edgeStyle=orthogonalEdgeStyle;rounded=0;orthogonalLoop=1;jettySize=auto;html=1;exitX=0;exitY=0.75;exitDx=0;exitDy=0;entryX=1;entryY=0;entryDx=0;entryDy=0;" edge="1" parent="N5NTylKhGauqdAHJKplo-98" source="N5NTylKhGauqdAHJKplo-9" target="N5NTylKhGauqdAHJKplo-85">
          <mxGeometry relative="1" as="geometry" />
        </mxCell>
        <mxCell id="N5NTylKhGauqdAHJKplo-9" value="ProgressRecord" style="rounded=0;whiteSpace=wrap;html=1;fillColor=#dae8fc;strokeColor=#6c8ebf;" vertex="1" parent="N5NTylKhGauqdAHJKplo-98">
          <mxGeometry x="85" y="50" width="110" height="40" as="geometry" />
        </mxCell>
        <mxCell id="N5NTylKhGauqdAHJKplo-81" value="&lt;u&gt;id&lt;/u&gt;" style="ellipse;whiteSpace=wrap;html=1;fillColor=#fff2cc;strokeColor=#d6b656;" vertex="1" parent="N5NTylKhGauqdAHJKplo-98">
          <mxGeometry x="110" width="70" height="30" as="geometry" />
        </mxCell>
        <mxCell id="N5NTylKhGauqdAHJKplo-85" value="recordedAt" style="ellipse;whiteSpace=wrap;html=1;fillColor=#fff2cc;strokeColor=#d6b656;" vertex="1" parent="N5NTylKhGauqdAHJKplo-98">
          <mxGeometry y="90" width="70" height="30" as="geometry" />
        </mxCell>
        <mxCell id="N5NTylKhGauqdAHJKplo-86" value="progressValue" style="ellipse;whiteSpace=wrap;html=1;fillColor=#fff2cc;strokeColor=#d6b656;" vertex="1" parent="N5NTylKhGauqdAHJKplo-98">
          <mxGeometry x="230" y="80" width="70" height="30" as="geometry" />
        </mxCell>
        <mxCell id="N5NTylKhGauqdAHJKplo-87" value="category" style="ellipse;whiteSpace=wrap;html=1;fillColor=#fff2cc;strokeColor=#d6b656;" vertex="1" parent="N5NTylKhGauqdAHJKplo-98">
          <mxGeometry x="190" width="70" height="30" as="geometry" />
        </mxCell>
        <mxCell id="N5NTylKhGauqdAHJKplo-112" value="" style="group" vertex="1" connectable="0" parent="1">
          <mxGeometry x="-470" y="130" width="320" height="140" as="geometry" />
        </mxCell>
        <mxCell id="N5NTylKhGauqdAHJKplo-105" style="edgeStyle=orthogonalEdgeStyle;rounded=0;orthogonalLoop=1;jettySize=auto;html=1;exitX=0.25;exitY=0;exitDx=0;exitDy=0;entryX=1;entryY=1;entryDx=0;entryDy=0;" edge="1" parent="N5NTylKhGauqdAHJKplo-112" source="N5NTylKhGauqdAHJKplo-11" target="N5NTylKhGauqdAHJKplo-100">
          <mxGeometry relative="1" as="geometry" />
        </mxCell>
        <mxCell id="N5NTylKhGauqdAHJKplo-107" style="edgeStyle=orthogonalEdgeStyle;rounded=0;orthogonalLoop=1;jettySize=auto;html=1;exitX=0.75;exitY=0;exitDx=0;exitDy=0;entryX=0;entryY=1;entryDx=0;entryDy=0;" edge="1" parent="N5NTylKhGauqdAHJKplo-112" source="N5NTylKhGauqdAHJKplo-11" target="N5NTylKhGauqdAHJKplo-99">
          <mxGeometry relative="1" as="geometry" />
        </mxCell>
        <mxCell id="N5NTylKhGauqdAHJKplo-109" style="edgeStyle=orthogonalEdgeStyle;rounded=0;orthogonalLoop=1;jettySize=auto;html=1;exitX=0.75;exitY=1;exitDx=0;exitDy=0;entryX=1;entryY=0;entryDx=0;entryDy=0;" edge="1" parent="N5NTylKhGauqdAHJKplo-112" source="N5NTylKhGauqdAHJKplo-11" target="N5NTylKhGauqdAHJKplo-103">
          <mxGeometry relative="1" as="geometry" />
        </mxCell>
        <mxCell id="N5NTylKhGauqdAHJKplo-11" value="Friendship" style="rounded=0;whiteSpace=wrap;html=1;fillColor=#dae8fc;strokeColor=#6c8ebf;" vertex="1" parent="N5NTylKhGauqdAHJKplo-112">
          <mxGeometry x="100" y="50" width="110" height="40" as="geometry" />
        </mxCell>
        <mxCell id="N5NTylKhGauqdAHJKplo-99" value="&lt;u&gt;id&lt;/u&gt;" style="ellipse;whiteSpace=wrap;html=1;fillColor=#fff2cc;strokeColor=#d6b656;" vertex="1" parent="N5NTylKhGauqdAHJKplo-112">
          <mxGeometry x="167.5" width="70" height="30" as="geometry" />
        </mxCell>
        <mxCell id="N5NTylKhGauqdAHJKplo-100" value="createdAt" style="ellipse;whiteSpace=wrap;html=1;fillColor=#fff2cc;strokeColor=#d6b656;" vertex="1" parent="N5NTylKhGauqdAHJKplo-112">
          <mxGeometry x="50" width="70" height="30" as="geometry" />
        </mxCell>
        <mxCell id="N5NTylKhGauqdAHJKplo-103" value="createdAt" style="ellipse;whiteSpace=wrap;html=1;fillColor=#fff2cc;strokeColor=#d6b656;" vertex="1" parent="N5NTylKhGauqdAHJKplo-112">
          <mxGeometry x="100" y="110" width="70" height="30" as="geometry" />
        </mxCell>
        <mxCell id="N5NTylKhGauqdAHJKplo-132" value="" style="group" vertex="1" connectable="0" parent="1">
          <mxGeometry x="-415" y="290" width="315" height="120" as="geometry" />
        </mxCell>
        <mxCell id="N5NTylKhGauqdAHJKplo-127" style="edgeStyle=orthogonalEdgeStyle;rounded=0;orthogonalLoop=1;jettySize=auto;html=1;exitX=0.5;exitY=0;exitDx=0;exitDy=0;entryX=0.5;entryY=1;entryDx=0;entryDy=0;" edge="1" parent="N5NTylKhGauqdAHJKplo-132" source="N5NTylKhGauqdAHJKplo-8" target="N5NTylKhGauqdAHJKplo-120">
          <mxGeometry relative="1" as="geometry" />
        </mxCell>
        <mxCell id="N5NTylKhGauqdAHJKplo-128" style="edgeStyle=orthogonalEdgeStyle;rounded=0;orthogonalLoop=1;jettySize=auto;html=1;exitX=0.75;exitY=0;exitDx=0;exitDy=0;entryX=0;entryY=0.5;entryDx=0;entryDy=0;" edge="1" parent="N5NTylKhGauqdAHJKplo-132" source="N5NTylKhGauqdAHJKplo-8" target="N5NTylKhGauqdAHJKplo-121">
          <mxGeometry relative="1" as="geometry" />
        </mxCell>
        <mxCell id="N5NTylKhGauqdAHJKplo-129" style="edgeStyle=orthogonalEdgeStyle;rounded=0;orthogonalLoop=1;jettySize=auto;html=1;exitX=1;exitY=0.5;exitDx=0;exitDy=0;entryX=0;entryY=0;entryDx=0;entryDy=0;" edge="1" parent="N5NTylKhGauqdAHJKplo-132" source="N5NTylKhGauqdAHJKplo-8" target="N5NTylKhGauqdAHJKplo-122">
          <mxGeometry relative="1" as="geometry" />
        </mxCell>
        <mxCell id="N5NTylKhGauqdAHJKplo-130" style="edgeStyle=orthogonalEdgeStyle;rounded=0;orthogonalLoop=1;jettySize=auto;html=1;exitX=0;exitY=0.75;exitDx=0;exitDy=0;entryX=1;entryY=0.5;entryDx=0;entryDy=0;" edge="1" parent="N5NTylKhGauqdAHJKplo-132" source="N5NTylKhGauqdAHJKplo-8" target="N5NTylKhGauqdAHJKplo-124">
          <mxGeometry relative="1" as="geometry" />
        </mxCell>
        <mxCell id="N5NTylKhGauqdAHJKplo-131" style="edgeStyle=orthogonalEdgeStyle;rounded=0;orthogonalLoop=1;jettySize=auto;html=1;exitX=0;exitY=0.25;exitDx=0;exitDy=0;entryX=0.5;entryY=1;entryDx=0;entryDy=0;" edge="1" parent="N5NTylKhGauqdAHJKplo-132" source="N5NTylKhGauqdAHJKplo-8" target="N5NTylKhGauqdAHJKplo-123">
          <mxGeometry relative="1" as="geometry" />
        </mxCell>
        <mxCell id="N5NTylKhGauqdAHJKplo-8" value="Message" style="rounded=0;whiteSpace=wrap;html=1;fillColor=#dae8fc;strokeColor=#6c8ebf;" vertex="1" parent="N5NTylKhGauqdAHJKplo-132">
          <mxGeometry x="120" y="60" width="110" height="40" as="geometry" />
        </mxCell>
        <mxCell id="N5NTylKhGauqdAHJKplo-120" value="&lt;u&gt;id&lt;/u&gt;" style="ellipse;whiteSpace=wrap;html=1;fillColor=#fff2cc;strokeColor=#d6b656;" vertex="1" parent="N5NTylKhGauqdAHJKplo-132">
          <mxGeometry x="127.5" width="70" height="30" as="geometry" />
        </mxCell>
        <mxCell id="N5NTylKhGauqdAHJKplo-121" value="senderId" style="ellipse;whiteSpace=wrap;html=1;fillColor=#fff2cc;strokeColor=#d6b656;" vertex="1" parent="N5NTylKhGauqdAHJKplo-132">
          <mxGeometry x="240" y="10" width="70" height="30" as="geometry" />
        </mxCell>
        <mxCell id="N5NTylKhGauqdAHJKplo-122" value="chatRoomId" style="ellipse;whiteSpace=wrap;html=1;fillColor=#fff2cc;strokeColor=#d6b656;" vertex="1" parent="N5NTylKhGauqdAHJKplo-132">
          <mxGeometry x="245" y="90" width="70" height="30" as="geometry" />
        </mxCell>
        <mxCell id="N5NTylKhGauqdAHJKplo-123" value="content" style="ellipse;whiteSpace=wrap;html=1;fillColor=#fff2cc;strokeColor=#d6b656;" vertex="1" parent="N5NTylKhGauqdAHJKplo-132">
          <mxGeometry x="30" y="10" width="70" height="30" as="geometry" />
        </mxCell>
        <mxCell id="N5NTylKhGauqdAHJKplo-124" value="createdAt" style="ellipse;whiteSpace=wrap;html=1;fillColor=#fff2cc;strokeColor=#d6b656;" vertex="1" parent="N5NTylKhGauqdAHJKplo-132">
          <mxGeometry y="80" width="70" height="30" as="geometry" />
        </mxCell>
        <mxCell id="N5NTylKhGauqdAHJKplo-137" style="edgeStyle=orthogonalEdgeStyle;rounded=0;orthogonalLoop=1;jettySize=auto;html=1;exitX=1;exitY=0.5;exitDx=0;exitDy=0;entryX=0;entryY=1;entryDx=0;entryDy=0;" edge="1" parent="1" source="N5NTylKhGauqdAHJKplo-133" target="N5NTylKhGauqdAHJKplo-3">
          <mxGeometry relative="1" as="geometry" />
        </mxCell>
        <mxCell id="N5NTylKhGauqdAHJKplo-140" style="edgeStyle=orthogonalEdgeStyle;rounded=0;orthogonalLoop=1;jettySize=auto;html=1;exitX=0.5;exitY=0;exitDx=0;exitDy=0;entryX=0.5;entryY=1;entryDx=0;entryDy=0;" edge="1" parent="1" source="N5NTylKhGauqdAHJKplo-133" target="N5NTylKhGauqdAHJKplo-28">
          <mxGeometry relative="1" as="geometry" />
        </mxCell>
        <mxCell id="N5NTylKhGauqdAHJKplo-141" style="edgeStyle=orthogonalEdgeStyle;rounded=0;orthogonalLoop=1;jettySize=auto;html=1;exitX=0.5;exitY=1;exitDx=0;exitDy=0;entryX=0.25;entryY=1;entryDx=0;entryDy=0;" edge="1" parent="1" source="N5NTylKhGauqdAHJKplo-133" target="N5NTylKhGauqdAHJKplo-7">
          <mxGeometry relative="1" as="geometry">
            <Array as="points">
              <mxPoint x="360" y="370" />
              <mxPoint x="105" y="370" />
            </Array>
          </mxGeometry>
        </mxCell>
        <mxCell id="N5NTylKhGauqdAHJKplo-142" style="edgeStyle=orthogonalEdgeStyle;rounded=0;orthogonalLoop=1;jettySize=auto;html=1;exitX=0.5;exitY=1;exitDx=0;exitDy=0;entryX=1;entryY=0;entryDx=0;entryDy=0;" edge="1" parent="1" source="N5NTylKhGauqdAHJKplo-133" target="N5NTylKhGauqdAHJKplo-5">
          <mxGeometry relative="1" as="geometry">
            <Array as="points">
              <mxPoint x="360" y="400" />
              <mxPoint x="270" y="400" />
            </Array>
          </mxGeometry>
        </mxCell>
        <mxCell id="N5NTylKhGauqdAHJKplo-143" style="edgeStyle=orthogonalEdgeStyle;rounded=0;orthogonalLoop=1;jettySize=auto;html=1;exitX=0.5;exitY=1;exitDx=0;exitDy=0;entryX=0.5;entryY=1;entryDx=0;entryDy=0;" edge="1" parent="1" source="N5NTylKhGauqdAHJKplo-133" target="N5NTylKhGauqdAHJKplo-4">
          <mxGeometry relative="1" as="geometry">
            <Array as="points">
              <mxPoint x="360" y="380" />
              <mxPoint x="585" y="380" />
            </Array>
          </mxGeometry>
        </mxCell>
        <mxCell id="N5NTylKhGauqdAHJKplo-171" style="edgeStyle=orthogonalEdgeStyle;rounded=0;orthogonalLoop=1;jettySize=auto;html=1;exitX=0.5;exitY=1;exitDx=0;exitDy=0;entryX=0;entryY=0;entryDx=0;entryDy=0;" edge="1" parent="1" source="N5NTylKhGauqdAHJKplo-133" target="N5NTylKhGauqdAHJKplo-9">
          <mxGeometry relative="1" as="geometry" />
        </mxCell>
        <mxCell id="N5NTylKhGauqdAHJKplo-133" value="Creates" style="rhombus;whiteSpace=wrap;html=1;fillColor=#e1d5e7;strokeColor=#9673a6;" vertex="1" parent="1">
          <mxGeometry x="320" y="130" width="80" height="80" as="geometry" />
        </mxCell>
        <mxCell id="N5NTylKhGauqdAHJKplo-136" style="edgeStyle=orthogonalEdgeStyle;rounded=0;orthogonalLoop=1;jettySize=auto;html=1;exitX=0.5;exitY=1;exitDx=0;exitDy=0;entryX=0;entryY=0.5;entryDx=0;entryDy=0;" edge="1" parent="1" source="N5NTylKhGauqdAHJKplo-1" target="N5NTylKhGauqdAHJKplo-133">
          <mxGeometry relative="1" as="geometry" />
        </mxCell>
        <mxCell id="N5NTylKhGauqdAHJKplo-28" value="userId" style="ellipse;whiteSpace=wrap;html=1;fillColor=#fff2cc;strokeColor=#d6b656;" vertex="1" parent="1">
          <mxGeometry x="325" y="40" width="70" height="30" as="geometry" />
        </mxCell>
        <mxCell id="N5NTylKhGauqdAHJKplo-148" style="edgeStyle=orthogonalEdgeStyle;rounded=0;orthogonalLoop=1;jettySize=auto;html=1;exitX=0;exitY=0.5;exitDx=0;exitDy=0;entryX=0.75;entryY=1;entryDx=0;entryDy=0;" edge="1" parent="1" source="N5NTylKhGauqdAHJKplo-146" target="N5NTylKhGauqdAHJKplo-11">
          <mxGeometry relative="1" as="geometry" />
        </mxCell>
        <mxCell id="N5NTylKhGauqdAHJKplo-150" style="edgeStyle=orthogonalEdgeStyle;rounded=0;orthogonalLoop=1;jettySize=auto;html=1;exitX=0.5;exitY=0;exitDx=0;exitDy=0;entryX=0.5;entryY=1;entryDx=0;entryDy=0;" edge="1" parent="1" source="N5NTylKhGauqdAHJKplo-146" target="N5NTylKhGauqdAHJKplo-102">
          <mxGeometry relative="1" as="geometry" />
        </mxCell>
        <mxCell id="N5NTylKhGauqdAHJKplo-151" style="edgeStyle=orthogonalEdgeStyle;rounded=0;orthogonalLoop=1;jettySize=auto;html=1;exitX=0.5;exitY=0;exitDx=0;exitDy=0;entryX=0.5;entryY=1;entryDx=0;entryDy=0;" edge="1" parent="1" source="N5NTylKhGauqdAHJKplo-146" target="N5NTylKhGauqdAHJKplo-101">
          <mxGeometry relative="1" as="geometry">
            <Array as="points">
              <mxPoint x="-105" y="190" />
              <mxPoint x="-165" y="190" />
              <mxPoint x="-165" y="220" />
              <mxPoint x="-215" y="220" />
            </Array>
          </mxGeometry>
        </mxCell>
        <mxCell id="N5NTylKhGauqdAHJKplo-146" value="Establishes" style="rhombus;whiteSpace=wrap;html=1;fillColor=#e1d5e7;strokeColor=#9673a6;" vertex="1" parent="1">
          <mxGeometry x="-145" y="200" width="80" height="80" as="geometry" />
        </mxCell>
        <mxCell id="N5NTylKhGauqdAHJKplo-147" style="edgeStyle=orthogonalEdgeStyle;rounded=0;orthogonalLoop=1;jettySize=auto;html=1;exitX=0.25;exitY=1;exitDx=0;exitDy=0;entryX=1;entryY=0.5;entryDx=0;entryDy=0;" edge="1" parent="1" source="N5NTylKhGauqdAHJKplo-1" target="N5NTylKhGauqdAHJKplo-146">
          <mxGeometry relative="1" as="geometry">
            <Array as="points">
              <mxPoint x="20" y="150" />
              <mxPoint x="20" y="200" />
              <mxPoint x="-50" y="200" />
              <mxPoint x="-50" y="240" />
            </Array>
          </mxGeometry>
        </mxCell>
        <mxCell id="N5NTylKhGauqdAHJKplo-102" value="requesterId" style="ellipse;whiteSpace=wrap;html=1;fillColor=#fff2cc;strokeColor=#d6b656;" vertex="1" parent="1">
          <mxGeometry x="-170" y="130" width="70" height="30" as="geometry" />
        </mxCell>
        <mxCell id="N5NTylKhGauqdAHJKplo-101" value="recieverId" style="ellipse;whiteSpace=wrap;html=1;fillColor=#fff2cc;strokeColor=#d6b656;" vertex="1" parent="1">
          <mxGeometry x="-250" y="170" width="70" height="30" as="geometry" />
        </mxCell>
        <mxCell id="N5NTylKhGauqdAHJKplo-159" style="edgeStyle=orthogonalEdgeStyle;rounded=0;orthogonalLoop=1;jettySize=auto;html=1;exitX=0.5;exitY=1;exitDx=0;exitDy=0;entryX=0.5;entryY=0;entryDx=0;entryDy=0;" edge="1" parent="1" source="N5NTylKhGauqdAHJKplo-152" target="N5NTylKhGauqdAHJKplo-10">
          <mxGeometry relative="1" as="geometry">
            <mxPoint x="-40" y="460" as="targetPoint" />
          </mxGeometry>
        </mxCell>
        <mxCell id="N5NTylKhGauqdAHJKplo-165" style="edgeStyle=orthogonalEdgeStyle;rounded=0;orthogonalLoop=1;jettySize=auto;html=1;exitX=1;exitY=0.5;exitDx=0;exitDy=0;entryX=0;entryY=0.5;entryDx=0;entryDy=0;" edge="1" parent="1" source="N5NTylKhGauqdAHJKplo-152" target="N5NTylKhGauqdAHJKplo-164">
          <mxGeometry relative="1" as="geometry" />
        </mxCell>
        <mxCell id="N5NTylKhGauqdAHJKplo-152" value="Enters" style="rhombus;whiteSpace=wrap;html=1;fillColor=#e1d5e7;strokeColor=#9673a6;" vertex="1" parent="1">
          <mxGeometry x="-80" y="320" width="80" height="80" as="geometry" />
        </mxCell>
        <mxCell id="N5NTylKhGauqdAHJKplo-153" style="edgeStyle=orthogonalEdgeStyle;rounded=0;orthogonalLoop=1;jettySize=auto;html=1;exitX=0.25;exitY=1;exitDx=0;exitDy=0;entryX=0.5;entryY=0;entryDx=0;entryDy=0;" edge="1" parent="1" source="N5NTylKhGauqdAHJKplo-1" target="N5NTylKhGauqdAHJKplo-152">
          <mxGeometry relative="1" as="geometry">
            <Array as="points">
              <mxPoint x="38" y="210" />
              <mxPoint x="-40" y="210" />
            </Array>
          </mxGeometry>
        </mxCell>
        <mxCell id="N5NTylKhGauqdAHJKplo-157" value="" style="group" vertex="1" connectable="0" parent="1">
          <mxGeometry x="-160" y="445" width="260" height="105" as="geometry" />
        </mxCell>
        <mxCell id="N5NTylKhGauqdAHJKplo-113" value="&lt;u&gt;id&lt;/u&gt;" style="ellipse;whiteSpace=wrap;html=1;fillColor=#fff2cc;strokeColor=#d6b656;" vertex="1" parent="N5NTylKhGauqdAHJKplo-157">
          <mxGeometry x="95" y="75" width="70" height="30" as="geometry" />
        </mxCell>
        <mxCell id="N5NTylKhGauqdAHJKplo-154" style="edgeStyle=orthogonalEdgeStyle;rounded=0;orthogonalLoop=1;jettySize=auto;html=1;exitX=0.5;exitY=1;exitDx=0;exitDy=0;entryX=0.5;entryY=0;entryDx=0;entryDy=0;" edge="1" parent="N5NTylKhGauqdAHJKplo-157" source="N5NTylKhGauqdAHJKplo-10" target="N5NTylKhGauqdAHJKplo-113">
          <mxGeometry relative="1" as="geometry" />
        </mxCell>
        <mxCell id="N5NTylKhGauqdAHJKplo-155" style="edgeStyle=orthogonalEdgeStyle;rounded=0;orthogonalLoop=1;jettySize=auto;html=1;exitX=1;exitY=0.5;exitDx=0;exitDy=0;entryX=0.5;entryY=0;entryDx=0;entryDy=0;" edge="1" parent="N5NTylKhGauqdAHJKplo-157" source="N5NTylKhGauqdAHJKplo-10" target="N5NTylKhGauqdAHJKplo-115">
          <mxGeometry relative="1" as="geometry" />
        </mxCell>
        <mxCell id="N5NTylKhGauqdAHJKplo-156" style="edgeStyle=orthogonalEdgeStyle;rounded=0;orthogonalLoop=1;jettySize=auto;html=1;exitX=0;exitY=0.5;exitDx=0;exitDy=0;entryX=0.5;entryY=0;entryDx=0;entryDy=0;" edge="1" parent="N5NTylKhGauqdAHJKplo-157" source="N5NTylKhGauqdAHJKplo-10" target="N5NTylKhGauqdAHJKplo-114">
          <mxGeometry relative="1" as="geometry" />
        </mxCell>
        <mxCell id="N5NTylKhGauqdAHJKplo-10" value="ChatRoom" style="rounded=0;whiteSpace=wrap;html=1;fillColor=#dae8fc;strokeColor=#6c8ebf;" vertex="1" parent="N5NTylKhGauqdAHJKplo-157">
          <mxGeometry x="72.5" width="110" height="40" as="geometry" />
        </mxCell>
        <mxCell id="N5NTylKhGauqdAHJKplo-114" value="createdAt" style="ellipse;whiteSpace=wrap;html=1;fillColor=#fff2cc;strokeColor=#d6b656;" vertex="1" parent="N5NTylKhGauqdAHJKplo-157">
          <mxGeometry y="70" width="70" height="30" as="geometry" />
        </mxCell>
        <mxCell id="N5NTylKhGauqdAHJKplo-115" value="name" style="ellipse;whiteSpace=wrap;html=1;fillColor=#fff2cc;strokeColor=#d6b656;" vertex="1" parent="N5NTylKhGauqdAHJKplo-157">
          <mxGeometry x="190" y="70" width="70" height="30" as="geometry" />
        </mxCell>
        <mxCell id="N5NTylKhGauqdAHJKplo-164" value="userId" style="ellipse;whiteSpace=wrap;html=1;fillColor=#fff2cc;strokeColor=#d6b656;" vertex="1" parent="1">
          <mxGeometry x="20" y="345" width="70" height="30" as="geometry" />
        </mxCell>
        <mxCell id="N5NTylKhGauqdAHJKplo-168" style="edgeStyle=orthogonalEdgeStyle;rounded=0;orthogonalLoop=1;jettySize=auto;html=1;exitX=0.5;exitY=0;exitDx=0;exitDy=0;entryX=0.5;entryY=1;entryDx=0;entryDy=0;" edge="1" parent="1" source="N5NTylKhGauqdAHJKplo-166" target="N5NTylKhGauqdAHJKplo-8">
          <mxGeometry relative="1" as="geometry" />
        </mxCell>
        <mxCell id="N5NTylKhGauqdAHJKplo-170" style="edgeStyle=orthogonalEdgeStyle;rounded=0;orthogonalLoop=1;jettySize=auto;html=1;exitX=0;exitY=0.5;exitDx=0;exitDy=0;entryX=1;entryY=0.5;entryDx=0;entryDy=0;" edge="1" parent="1" source="N5NTylKhGauqdAHJKplo-166" target="N5NTylKhGauqdAHJKplo-169">
          <mxGeometry relative="1" as="geometry" />
        </mxCell>
        <mxCell id="N5NTylKhGauqdAHJKplo-166" value="Has" style="rhombus;whiteSpace=wrap;html=1;fillColor=#e1d5e7;strokeColor=#9673a6;" vertex="1" parent="1">
          <mxGeometry x="-280" y="450" width="80" height="80" as="geometry" />
        </mxCell>
        <mxCell id="N5NTylKhGauqdAHJKplo-167" style="edgeStyle=orthogonalEdgeStyle;rounded=0;orthogonalLoop=1;jettySize=auto;html=1;exitX=0.25;exitY=0;exitDx=0;exitDy=0;entryX=1;entryY=0.5;entryDx=0;entryDy=0;" edge="1" parent="1" source="N5NTylKhGauqdAHJKplo-10" target="N5NTylKhGauqdAHJKplo-166">
          <mxGeometry relative="1" as="geometry" />
        </mxCell>
        <mxCell id="N5NTylKhGauqdAHJKplo-169" value="messageId" style="ellipse;whiteSpace=wrap;html=1;fillColor=#fff2cc;strokeColor=#d6b656;" vertex="1" parent="1">
          <mxGeometry x="-415" y="475" width="70" height="30" as="geometry" />
        </mxCell>
        <mxCell id="N5NTylKhGauqdAHJKplo-174" value="" style="rounded=0;whiteSpace=wrap;html=1;fillColor=none;strokeColor=none;" vertex="1" parent="1">
          <mxGeometry x="-430" y="-40" width="1230" height="610" as="geometry" />
        </mxCell>
      </root>
    </mxGraphModel>
  </diagram>
</mxfile>
